# xmcd
#
# Track frame offsets:
#	150
#	20956
#	43649
#	67353
#	89689
#	105822
#	128417
#	153689
#	168932
#	184896
#	210029
#
# Disc length: 3040 seconds
#
# Revision: 1
# Processed by: cddbd v1.5.2PL0 Copyright (c) Steve Scherf et al.
# Submitted via: audiograbber 1.83.01
#
DISCID=910bde0b
DTITLE=Sandi Patty - Via Dolorosa
DYEAR=2008
DGENRE=Christian
TTITLE0=Via Dolorosa
TTITLE1=In The Name Of The Lord
TTITLE2=The Day He Wore My Crown
TTITLE3=Where The Nails Were
TTITLE4=The Old Rugged Cross
TTITLE5=O Calvary's Lamb
TTITLE6=They Could Not
TTITLE7=Was It A Morning Like This
TTITLE8=Glorious Morning
TTITLE9=Who Will Call Him King of Kings
TTITLE10=I Will Sing The Wondrous Story
EXTD=
EXTT0=
EXTT1=
EXTT2=
EXTT3=
EXTT4=
EXTT5=
EXTT6=
EXTT7=
EXTT8=
EXTT9=
EXTT10=
PLAYORDER=
